<svg width="1440" height="1374" viewBox="0 0 1440 1374" fill="none" xmlns="http://www.w3.org/2000/svg">
<path d="M30.2955 1.19411e-05L14.6968 -7.53523L15.9752 9.73803L30.2955 1.19411e-05ZM4.88953 3.37457L16.9427 2.48717L16.7212 -0.504651L4.66809 0.382754L4.88953 3.37457Z" fill="#EAE5E1"/>
<path d="M167.199 7.15779L153.812 -3.82223L150.984 13.266L167.199 7.15779ZM134.878 3.35854L153.633 6.44534L154.123 3.48558L135.367 0.39878L134.878 3.35854Z" fill="#EAE5E1"/>
<path d="M297.669 17.1298L287.836 2.89026L280.39 18.5289L297.669 17.1298ZM264.821 3.233L284.824 12.7059L286.113 9.99724L266.111 0.52432L264.821 3.233Z" fill="#EAE5E1"/>
<path d="M411.343 17.81L407.088 1.04069L394.655 13.0996L411.343 17.81ZM394.733 2.92299L400.842 9.18845L402.995 7.09979L396.886 0.834332L394.733 2.92299Z" fill="#EAE5E1"/>
<path d="M532.188 18.6065L535.249 1.57138L518.947 7.42193L532.188 18.6065ZM524.741 2.38533L526.195 6.41431L529.019 5.40096L527.565 1.37199L524.741 2.38533Z" fill="#EAE5E1"/>
<path d="M656.458 24.1008L665.145 9.11597L647.824 9.08574L656.458 24.1008ZM654.997 1.87604L654.982 10.5982L657.982 10.6035L657.997 1.88128L654.997 1.87604Z" fill="#EAE5E1"/>
<path d="M781.117 36.9729L792.08 23.5554L774.983 20.7816L781.117 36.9729ZM785.36 1.63844L781.809 23.4087L784.77 23.8892L788.321 2.11888L785.36 1.63844Z" fill="#EAE5E1"/>
<path d="M911.12 33.7341L922.434 20.6101L905.416 17.3874L911.12 33.7341ZM915.71 1.59957L912.171 20.1932L915.118 20.7513L918.658 2.15776L915.71 1.59957Z" fill="#EAE5E1"/>
<path d="M1043.74 27.1164L1054.53 13.5606L1037.4 11.0043L1043.74 27.1164ZM1046.04 1.65728L1044.26 13.5444L1047.23 13.9872L1049.01 2.10005L1046.04 1.65728Z" fill="#EAE5E1"/>
<path d="M1176.27 22.3054L1186.08 8.02562L1168.81 6.67715L1176.27 22.3054ZM1176.38 1.76188L1175.83 8.73L1178.82 8.96357L1179.37 1.99544L1176.38 1.76188Z" fill="#EAE5E1"/>
<path d="M1308.37 18.449L1316.89 3.36992L1299.57 3.52937L1308.37 18.449ZM1306.71 1.89247L1306.74 4.96339L1309.74 4.93577L1309.71 1.86485L1306.71 1.89247Z" fill="#EAE5E1"/>
<path d="M1440 15.1776L1446.99 -0.663394L1429.77 1.19332L1440 15.1776Z" fill="#EAE5E1"/>
<path d="M32.3145 126.663L15.9567 120.947L19.1963 137.962L32.3145 126.663ZM5.05937 133.352L19.3309 130.649L18.7698 127.702L4.49825 130.405L5.05937 133.352Z" fill="#EAE5E1"/>
<path d="M172.806 132.721L158.005 123.728L157.615 141.044L172.806 132.721ZM135.089 133.378L159.276 133.919L159.343 130.92L135.156 130.379L135.089 133.378Z" fill="#EAE5E1"/>
<path d="M286.946 137.785L274.79 125.461L270.175 142.155L286.946 137.785ZM265.066 133.324L273.529 135.651L274.328 132.76L265.866 130.433L265.066 133.324Z" fill="#EAE5E1"/>
<path d="M402.924 137.233L396.164 121.307L385.714 135.12L402.924 137.233Z" fill="#EAE5E1"/>
<path d="M527.232 137.781L533.056 121.476L516.014 124.575L527.232 137.781Z" fill="#EAE5E1"/>
<path d="M652.852 139.99L666.907 129.842L651.094 122.774L652.852 139.99Z" fill="#EAE5E1"/>
<path d="M775.844 151.206L790.799 142.434L775.725 133.903L775.844 151.206ZM785.535 131.14L781.215 138.733L783.825 140.211L788.146 132.618L785.535 131.14Z" fill="#EAE5E1"/>
<path d="M900.659 165.667L915.037 155.981L899.462 148.404L900.659 165.667ZM915.835 131.222L905.242 152.884L907.939 154.196L918.533 132.535L915.835 131.222Z" fill="#EAE5E1"/>
<path d="M1037.75 158.076L1051.11 147.038L1034.88 141.008L1037.75 158.076ZM1046.12 131.357L1041.06 144.906L1043.88 145.95L1048.93 132.401L1046.12 131.357Z" fill="#EAE5E1"/>
<path d="M1172.42 153.097L1184.54 140.711L1167.76 136.425L1172.42 153.097ZM1176.42 131.507L1174.33 139.65L1177.23 140.392L1179.32 132.25L1176.42 131.507Z" fill="#EAE5E1"/>
<path d="M1305.75 149.196L1316.44 135.558L1299.29 133.133L1305.75 149.196ZM1306.73 131.669L1306.17 135.621L1309.14 136.041L1309.7 132.089L1306.73 131.669Z" fill="#EAE5E1"/>
<path d="M1438.18 145.897L1447.24 131.133L1429.93 130.671L1438.18 145.897ZM1437.06 131.839L1437.04 132.362L1440.04 132.442L1440.06 131.919L1437.06 131.839Z" fill="#EAE5E1"/>
<path d="M32.0073 251.965L14.9358 248.964L20.8891 265.229L32.0073 251.965ZM5.29438 263.287L19.8375 257.992L18.8064 255.175L4.26324 260.47L5.29438 263.287Z" fill="#EAE5E1"/>
<path d="M174.465 254.111L158.063 248.522L161.435 265.511L174.465 254.111ZM135.414 263.35L161.512 258.197L160.928 255.255L134.83 260.407L135.414 263.35Z" fill="#EAE5E1"/>
<path d="M283.248 260.65L267.684 253.044L268.884 270.323L283.248 260.65ZM265.57 263.375L269.884 263.077L269.676 260.084L265.362 260.382L265.57 263.375Z" fill="#EAE5E1"/>
<path d="M401.825 261.896L386.85 253.193L386.801 270.513L401.825 261.896Z" fill="#EAE5E1"/>
<path d="M526.153 261.879H527.156" stroke="#EAE5E1"/>
<path d="M650.855 263.961L667.94 266.886L661.914 250.648L650.855 263.961Z" fill="#EAE5E1"/>
<path d="M772.728 272.739L789.915 270.44L779.317 256.741L772.728 272.739ZM785.923 260.692L782.509 263.319L784.345 265.692L787.758 263.065L785.923 260.692Z" fill="#EAE5E1"/>
<path d="M891.511 292.609L907.789 286.633L894.468 275.563L891.511 292.609ZM916.03 260.92L899.013 281.29L901.32 283.208L918.338 262.837L916.03 260.92Z" fill="#EAE5E1"/>
<path d="M1032.82 286.788L1047.91 278.259L1032.98 269.485L1032.82 286.788ZM1046.23 261.119L1038.39 274.404L1040.97 275.924L1048.82 262.639L1046.23 261.119Z" fill="#EAE5E1"/>
<path d="M1169.19 282.562L1182.99 272.067L1167 265.394L1169.19 282.562ZM1176.49 261.301L1173.03 269.536L1175.8 270.692L1179.26 262.457L1176.49 261.301Z" fill="#EAE5E1"/>
<path d="M1303.46 279.055L1315.81 266.899L1299.11 262.298L1303.46 279.055ZM1306.77 261.48L1305.61 265.646L1308.51 266.443L1309.66 262.277L1306.77 261.48Z" fill="#EAE5E1"/>
<path d="M1436.51 275.98L1447.24 262.372L1430.09 259.899L1436.51 275.98ZM1437.07 261.664L1436.97 262.406L1439.94 262.834L1440.04 262.093L1437.07 261.664Z" fill="#EAE5E1"/>
<path d="M28.8236 377.515L11.4877 377.783L20.4048 392.632L28.8236 377.515ZM5.55105 393.165L18.0063 385.724L16.4618 383.152L4.00656 390.593L5.55105 393.165Z" fill="#EAE5E1"/>
<path d="M169.258 375.935L151.986 374.444L159.348 390.122L169.258 375.935ZM135.76 393.236L157.664 383.006L156.389 380.29L134.485 390.521L135.76 393.236Z" fill="#EAE5E1"/>
<path d="M285.737 382.655L268.482 380.992L275.686 396.743L285.737 382.655ZM266.09 393.243L274.073 389.61L272.825 386.882L264.842 390.515L266.09 393.243Z" fill="#EAE5E1"/>
<path d="M402.707 386.249L385.593 389.038L396.579 402.429L402.707 386.249Z" fill="#EAE5E1"/>
<path d="M525.671 385.898L518.245 401.542L535.51 400.157L525.671 385.898Z" fill="#EAE5E1"/>
<path d="M647.843 389.753L660.334 401.739L664.486 384.924L647.843 389.753Z" fill="#EAE5E1"/>
<path d="M766.569 401.102L783.825 402.765L776.62 387.014L766.569 401.102ZM786.217 390.515L778.233 394.147L779.481 396.875L787.464 393.243L786.217 390.515Z" fill="#EAE5E1"/>
<path d="M889.392 417.275L906.324 413.534L894.606 400.779L889.392 417.275ZM916.169 390.774L898.343 407.064L900.373 409.273L918.199 392.983L916.169 390.774Z" fill="#EAE5E1"/>
<path d="M1030.66 414.205L1046.63 407.439L1032.78 397.033L1030.66 414.205ZM1046.33 390.978L1037.6 402.532L1040 404.334L1048.73 392.78L1046.33 390.978Z" fill="#EAE5E1"/>
<path d="M1167.27 411.062L1182.12 402.103L1166.94 393.762L1167.27 411.062ZM1176.56 391.156L1172.49 398.523L1175.12 399.968L1179.19 392.601L1176.56 391.156Z" fill="#EAE5E1"/>
<path d="M1301.84 408.174L1315.38 397.345L1299.23 391.064L1301.84 408.174ZM1306.82 391.335L1305.36 395.058L1308.16 396.146L1309.61 392.423L1306.82 391.335Z" fill="#EAE5E1"/>
<path d="M1435.21 405.497L1447.2 392.992L1430.38 388.872L1435.21 405.497ZM1437.1 391.522L1436.98 392.032L1439.89 392.746L1440.02 392.235L1437.1 391.522Z" fill="#EAE5E1"/>
<path d="M23.7359 504.74L6.78433 508.391L18.4336 521.209L23.7359 504.74ZM5.78767 522.989L14.7305 514.904L12.7128 512.684L3.76995 520.769L5.78767 522.989Z" fill="#EAE5E1"/>
<path d="M160.949 502.185L143.752 504.407L154.29 518.153L160.949 502.185ZM136.035 523.069L151.127 511.561L149.301 509.18L134.21 520.688L136.035 523.069Z" fill="#EAE5E1"/>
<path d="M294.025 500.597L276.805 502.629L287.189 516.491L294.025 500.597ZM266.365 523.079L284.099 509.864L282.3 507.463L264.567 520.678L266.365 523.079Z" fill="#EAE5E1"/>
<path d="M411.375 505.979L394.678 510.655L407.086 522.739L411.375 505.979ZM396.884 522.925L403.006 516.672L400.857 514.579L394.735 520.832L396.884 522.925Z" fill="#EAE5E1"/>
<path d="M528.808 504.299L518.004 517.845L535.132 520.417L528.808 504.299ZM527.637 522.101L528.276 517.871L525.309 517.425L524.67 521.656L527.637 522.101Z" fill="#EAE5E1"/>
<path d="M634.226 522.534L649.475 530.749L648.963 513.436L634.226 522.534ZM656.453 520.379L647.675 520.638L647.764 523.636L656.541 523.378L656.453 520.379Z" fill="#EAE5E1"/>
<path d="M757.142 541.548L774.448 540.474L764.849 526.056L757.142 541.548ZM786.009 520.63L767.566 532.845L769.229 535.342L787.672 523.127L786.009 520.63Z" fill="#EAE5E1"/>
<path d="M893.704 544.305L910.549 540.191L898.553 527.698L893.704 544.305ZM916.145 520.797L902.427 533.898L904.505 536.062L918.223 522.961L916.145 520.797Z" fill="#EAE5E1"/>
<path d="M1029.53 542.155L1045.98 536.667L1033 525.204L1029.53 542.155ZM1046.4 520.886L1037.37 531.065L1039.62 533.05L1048.65 522.871L1046.4 520.886Z" fill="#EAE5E1"/>
<path d="M1164.57 539.956L1180.45 532.989L1166.47 522.759L1164.57 539.956ZM1176.66 520.993L1171.36 528.196L1173.78 529.968L1179.08 522.765L1176.66 520.993Z" fill="#EAE5E1"/>
<path d="M1298.88 537.879L1313.93 529.268L1298.95 520.575L1298.88 537.879ZM1306.92 521.126L1304.39 525.464L1306.98 526.97L1309.51 522.631L1306.92 521.126Z" fill="#EAE5E1"/>
<path d="M1432.5 535.838L1446.42 525.511L1430.52 518.646L1432.5 535.838ZM1437.18 521.284L1436.5 522.86L1439.25 524.049L1439.94 522.473L1437.18 521.284Z" fill="#EAE5E1"/>
<path d="M18.0792 633.801L2.20121 640.769L16.1782 650.998L18.0792 633.801ZM5.98926 652.765L11.2891 645.561L8.86823 643.789L3.56836 650.993L5.98926 652.765Z" fill="#EAE5E1"/>
<path d="M153.116 631.602L136.667 637.09L149.652 648.553L153.116 631.602ZM136.247 652.871L145.28 642.692L143.031 640.707L133.998 650.886L136.247 652.871Z" fill="#EAE5E1"/>
<path d="M288.946 629.453L272.101 633.566L284.097 646.06L288.946 629.453ZM266.505 652.961L280.223 639.859L278.145 637.695L264.427 650.797L266.505 652.961Z" fill="#EAE5E1"/>
<path d="M425.508 632.21L408.202 633.284L417.801 647.701L425.508 632.21ZM396.641 653.127L415.084 640.913L413.421 638.416L394.978 650.63L396.641 653.127Z" fill="#EAE5E1"/>
<path d="M548.425 651.223L533.175 643.008L533.687 660.321L548.425 651.223ZM526.198 653.378L534.975 653.12L534.886 650.121L526.109 650.379L526.198 653.378Z" fill="#EAE5E1"/>
<path d="M653.842 669.458L664.646 655.913L647.518 653.34L653.842 669.458ZM655.013 651.656L654.375 655.887L657.341 656.332L657.98 652.101L655.013 651.656Z" fill="#EAE5E1"/>
<path d="M771.275 667.779L787.973 663.102L775.564 651.018L771.275 667.779ZM785.766 650.832L779.644 657.085L781.793 659.178L787.915 652.925L785.766 650.832Z" fill="#EAE5E1"/>
<path d="M888.626 673.16L905.846 671.128L895.461 657.266L888.626 673.16ZM916.285 650.678L898.551 663.893L900.35 666.294L918.083 653.079L916.285 650.678Z" fill="#EAE5E1"/>
<path d="M1021.7 671.573L1038.9 669.35L1028.36 655.604L1021.7 671.573ZM1046.62 650.688L1031.52 662.196L1033.35 664.577L1048.44 653.069L1046.62 650.688Z" fill="#EAE5E1"/>
<path d="M1158.91 669.017L1175.87 665.366L1164.22 652.549L1158.91 669.017ZM1176.86 650.769L1167.92 658.854L1169.94 661.074L1178.88 652.989L1176.86 650.769Z" fill="#EAE5E1"/>
<path d="M1294.71 667.318L1311.12 661.713L1298.05 650.343L1294.71 667.318ZM1307.08 650.894L1302.47 656.172L1304.73 658.142L1309.35 652.863L1307.08 650.894Z" fill="#EAE5E1"/>
<path d="M1429.4 665.706L1444.92 657.964L1430.45 648.436L1429.4 665.706ZM1437.31 651.053L1435.6 653.625L1438.11 655.275L1439.81 652.704L1437.31 651.053Z" fill="#EAE5E1"/>
<path d="M15.3764 762.695L0.533336 771.654L15.7129 779.996L15.3764 762.695ZM6.0934 782.601L10.163 775.234L7.53386 773.79L3.46422 781.156L6.0934 782.601Z" fill="#EAE5E1"/>
<path d="M151.989 759.553L136.024 766.319L149.87 776.724L151.989 759.553ZM136.322 782.78L145.05 771.226L142.652 769.423L133.923 780.978L136.322 782.78Z" fill="#EAE5E1"/>
<path d="M293.258 756.482L276.326 760.223L288.044 772.978L293.258 756.482ZM266.481 782.983L284.307 766.694L282.277 764.484L264.451 780.774L266.481 782.983Z" fill="#EAE5E1"/>
<path d="M416.081 772.655L398.825 770.992L406.03 786.743L416.081 772.655ZM396.434 783.243L404.417 779.61L403.169 776.882L395.186 780.515L396.434 783.243Z" fill="#EAE5E1"/>
<path d="M534.807 784.005L522.317 772.018L518.164 788.834L534.807 784.005Z" fill="#EAE5E1"/>
<path d="M656.979 787.859L664.405 772.215L647.14 773.601L656.979 787.859Z" fill="#EAE5E1"/>
<path d="M779.943 787.508L797.057 784.719L786.071 771.328L779.943 787.508Z" fill="#EAE5E1"/>
<path d="M896.913 791.102L914.168 792.765L906.964 777.014L896.913 791.102ZM916.56 780.515L908.577 784.147L909.825 786.875L917.808 783.243L916.56 780.515Z" fill="#EAE5E1"/>
<path d="M1013.39 797.822L1030.66 799.314L1023.3 783.636L1013.39 797.822ZM1046.89 780.521L1024.99 790.752L1026.26 793.467L1048.17 783.236L1046.89 780.521Z" fill="#EAE5E1"/>
<path d="M1153.83 796.242L1171.16 795.974L1162.25 781.125L1153.83 796.242ZM1177.1 780.593L1164.64 788.033L1166.19 790.605L1178.64 783.165L1177.1 780.593Z" fill="#EAE5E1"/>
<path d="M1291.09 795.593L1308.23 792.961L1297.37 779.47L1291.09 795.593ZM1307.27 780.71L1300.69 785.985L1302.57 788.322L1309.16 783.047L1307.27 780.71Z" fill="#EAE5E1"/>
<path d="M1426.7 794.766L1443.25 789.575L1430.47 777.881L1426.7 794.766ZM1437.45 780.866L1434.73 783.819L1436.95 785.844L1439.66 782.891L1437.45 780.866Z" fill="#EAE5E1"/>
<path d="M13.4598 891.196L-0.337042 901.69L15.6464 908.363L13.4598 891.196ZM6.16301 912.457L9.61938 904.221L6.85097 903.066L3.3946 911.301L6.16301 912.457Z" fill="#EAE5E1"/>
<path d="M149.835 886.97L134.739 895.498L149.673 904.272L149.835 886.97ZM136.416 912.639L144.262 899.353L141.676 897.834L133.829 911.119L136.416 912.639Z" fill="#EAE5E1"/>
<path d="M291.139 881.148L274.861 887.124L288.183 898.195L291.139 881.148ZM266.62 912.837L283.637 892.467L281.33 890.55L264.312 910.92L266.62 912.837Z" fill="#EAE5E1"/>
<path d="M409.922 901.018L392.735 903.317L403.334 917.016L409.922 901.018ZM396.727 913.065L400.141 910.438L398.305 908.065L394.892 910.692L396.727 913.065Z" fill="#EAE5E1"/>
<path d="M531.795 909.796L514.71 906.871L520.736 923.11L531.795 909.796Z" fill="#EAE5E1"/>
<path d="M656.497 911.879H657.499" stroke="#EAE5E1"/>
<path d="M780.825 911.862L795.8 920.564L795.849 903.244L780.825 911.862Z" fill="#EAE5E1"/>
<path d="M899.402 913.108L914.966 920.713L913.766 903.434L899.402 913.108ZM917.08 910.382L912.766 910.68L912.974 913.673L917.288 913.375L917.08 910.382Z" fill="#EAE5E1"/>
<path d="M1008.19 919.646L1024.59 925.235L1021.22 908.246L1008.19 919.646ZM1047.24 910.407L1021.14 915.56L1021.72 918.503L1047.82 913.35L1047.24 910.407Z" fill="#EAE5E1"/>
<path d="M1150.64 921.792L1167.71 924.793L1161.76 908.528L1150.64 921.792ZM1177.36 910.47L1162.81 915.765L1163.84 918.582L1178.39 913.287L1177.36 910.47Z" fill="#EAE5E1"/>
<path d="M1288.67 922.967L1306.01 923.086L1297.43 908.042L1288.67 922.967ZM1307.47 910.576L1299.67 915.001L1301.16 917.607L1308.96 913.182L1307.47 910.576Z" fill="#EAE5E1"/>
<path d="M1424.77 923.213L1441.88 920.362L1430.84 907.012L1424.77 923.213ZM1437.6 910.722L1434.24 913.483L1436.16 915.796L1439.51 913.035L1437.6 910.722Z" fill="#EAE5E1"/>
<path d="M10.2268 1020.66L-1.89454 1033.05L14.8872 1037.33L10.2268 1020.66ZM6.23215 1042.25L8.32273 1034.11L5.41604 1033.37L3.32546 1041.51L6.23215 1042.25Z" fill="#EAE5E1"/>
<path d="M144.902 1015.68L131.537 1026.72L147.774 1032.75L144.902 1015.68ZM136.529 1042.4L141.587 1028.85L138.774 1027.81L133.716 1041.36L136.529 1042.4Z" fill="#EAE5E1"/>
<path d="M281.991 1008.09L267.613 1017.78L283.188 1025.35L281.991 1008.09ZM266.815 1042.53L277.409 1020.87L274.711 1019.56L264.117 1041.22L266.815 1042.53Z" fill="#EAE5E1"/>
<path d="M406.806 1022.55L391.851 1031.32L406.925 1039.85L406.806 1022.55ZM397.115 1042.62L401.436 1035.02L398.825 1033.55L394.504 1041.14L397.115 1042.62Z" fill="#EAE5E1"/>
<path d="M529.798 1033.77L515.744 1043.91L531.556 1050.98L529.798 1033.77Z" fill="#EAE5E1"/>
<path d="M655.418 1035.98L649.595 1052.28L666.636 1049.18L655.418 1035.98Z" fill="#EAE5E1"/>
<path d="M779.726 1036.52L786.486 1052.45L796.936 1038.64L779.726 1036.52Z" fill="#EAE5E1"/>
<path d="M895.704 1035.97L907.86 1048.3L912.475 1031.6L895.704 1035.97ZM917.584 1040.43L909.121 1038.11L908.322 1041L916.784 1043.32L917.584 1040.43Z" fill="#EAE5E1"/>
<path d="M1009.84 1041.04L1024.65 1050.03L1025.03 1032.71L1009.84 1041.04ZM1047.56 1040.38L1023.37 1039.84L1023.31 1042.84L1047.49 1043.38L1047.56 1040.38Z" fill="#EAE5E1"/>
<path d="M1150.34 1047.09L1166.69 1052.81L1163.45 1035.8L1150.34 1047.09ZM1177.59 1040.41L1163.32 1043.11L1163.88 1046.06L1178.15 1043.35L1177.59 1040.41Z" fill="#EAE5E1"/>
<path d="M1287.86 1050.1L1305.03 1052.51L1298.51 1036.46L1287.86 1050.1ZM1307.65 1040.49L1299.81 1043.66L1300.94 1046.43L1308.78 1043.27L1307.65 1040.49Z" fill="#EAE5E1"/>
<path d="M1423.85 1051.4L1441.16 1050.51L1431.72 1035.99L1423.85 1051.4ZM1437.74 1040.62L1434.36 1042.81L1436 1045.32L1439.38 1043.14L1437.74 1040.62Z" fill="#EAE5E1"/>
<path d="M6.38239 1151.45L-3.42553 1165.73L13.8424 1167.08L6.38239 1151.45ZM6.27426 1172L6.82128 1165.03L3.83039 1164.79L3.28336 1171.76L6.27426 1172Z" fill="#EAE5E1"/>
<path d="M138.908 1146.64L128.118 1160.2L145.249 1162.75L138.908 1146.64ZM136.606 1172.1L138.389 1160.21L135.422 1159.77L133.639 1171.66L136.606 1172.1Z" fill="#EAE5E1"/>
<path d="M271.53 1140.02L260.216 1153.15L277.234 1156.37L271.53 1140.02ZM266.94 1172.16L270.48 1153.56L267.532 1153.01L263.992 1171.6L266.94 1172.16Z" fill="#EAE5E1"/>
<path d="M401.533 1136.78L390.57 1150.2L407.667 1152.98L401.533 1136.78ZM397.29 1172.12L400.841 1150.35L397.88 1149.87L394.329 1171.64L397.29 1172.12Z" fill="#EAE5E1"/>
<path d="M526.192 1149.66L517.506 1164.64L534.826 1164.67L526.192 1149.66ZM527.653 1171.88L527.669 1163.16L524.669 1163.15L524.653 1171.88L527.653 1171.88Z" fill="#EAE5E1"/>
<path d="M650.462 1155.15L647.401 1172.19L663.704 1166.34L650.462 1155.15ZM657.909 1171.37L656.455 1167.34L653.631 1168.36L655.085 1172.39L657.909 1171.37Z" fill="#EAE5E1"/>
<path d="M771.307 1155.95L775.562 1172.72L787.995 1160.66L771.307 1155.95ZM787.917 1170.83L781.808 1164.57L779.655 1166.66L785.764 1172.92L787.917 1170.83Z" fill="#EAE5E1"/>
<path d="M884.981 1156.63L894.814 1170.87L902.26 1155.23L884.981 1156.63ZM917.829 1170.52L897.826 1161.05L896.537 1163.76L916.539 1173.23L917.829 1170.52Z" fill="#EAE5E1"/>
<path d="M1015.45 1166.6L1028.84 1177.58L1031.67 1160.49L1015.45 1166.6ZM1047.77 1170.4L1029.02 1167.31L1028.53 1170.27L1047.28 1173.36L1047.77 1170.4Z" fill="#EAE5E1"/>
<path d="M1152.35 1173.76L1167.95 1181.29L1166.67 1164.02L1152.35 1173.76ZM1177.76 1170.38L1165.71 1171.27L1165.93 1174.26L1177.98 1173.37L1177.76 1170.38Z" fill="#EAE5E1"/>
<path d="M1288.52 1177.72L1305.38 1181.75L1300.43 1165.15L1288.52 1177.72ZM1307.79 1170.44L1301.04 1172.44L1301.89 1175.32L1308.64 1173.32L1307.79 1170.44Z" fill="#EAE5E1"/>
<path d="M1423.91 1179.7L1441.24 1180.26L1433.04 1165.01L1423.91 1179.7ZM1437.85 1170.56L1435.11 1172.02L1436.53 1174.66L1439.27 1173.2L1437.85 1170.56Z" fill="#EAE5E1"/>
<path d="M2.78522 1283.48L-4.20965 1299.32L13.0112 1297.46L2.78522 1283.48ZM6.27017 1301.72L5.73057 1296.74L2.74784 1297.06L3.28744 1302.04L6.27017 1301.72Z" fill="#EAE5E1"/>
<path d="M133.638 1279.51L125.99 1295.04L143.273 1293.9L133.638 1279.51ZM136.619 1301.78L136.029 1292.88L133.035 1293.07L133.626 1301.98L136.619 1301.78Z" fill="#EAE5E1"/>
<path d="M263.765 1274.85L256.064 1290.37L273.351 1289.28L263.765 1274.85ZM266.963 1301.78L266.11 1288.23L263.116 1288.42L263.969 1301.97L266.963 1301.78Z" fill="#EAE5E1"/>
<path d="M391.91 1269.69L385.116 1285.62L402.312 1283.54L391.91 1269.69ZM397.299 1301.7L395.022 1282.91L392.044 1283.27L394.32 1302.06L397.299 1301.7Z" fill="#EAE5E1"/>
<path d="M516.258 1265.6L511.847 1282.34L528.563 1277.81L516.258 1265.6ZM527.601 1301.49L521.258 1278.23L518.363 1279.02L524.706 1302.27L527.601 1301.49Z" fill="#EAE5E1"/>
<path d="M637.096 1266.87L636.782 1284.17L651.951 1275.81L637.096 1266.87ZM657.81 1301.15L644.953 1277.95L642.326 1279.4L655.183 1302.6L657.81 1301.15Z" fill="#EAE5E1"/>
<path d="M759.874 1275.61L764.56 1292.27L776.679 1279.89L759.874 1275.61ZM787.89 1300.81L770.594 1283.96L768.495 1286.1L785.791 1302.95L787.89 1300.81Z" fill="#EAE5E1"/>
<path d="M888.412 1286.78L897.655 1301.41L905.735 1286.09L888.412 1286.78ZM917.884 1300.55L901.067 1291.73L899.667 1294.38L916.484 1303.21L917.884 1300.55Z" fill="#EAE5E1"/>
<path d="M1021.05 1295.92L1033.77 1307.66L1037.59 1290.76L1021.05 1295.92ZM1047.86 1300.42L1034.55 1297.42L1033.88 1300.34L1047.2 1303.34L1047.86 1300.42Z" fill="#EAE5E1"/>
<path d="M1155.39 1302.21L1170.52 1310.65L1170.26 1293.33L1155.39 1302.21ZM1177.85 1300.38L1168.87 1300.51L1168.91 1303.51L1177.89 1303.38L1177.85 1300.38Z" fill="#EAE5E1"/>
<path d="M1290.16 1306.16L1306.76 1311.12L1302.74 1294.28L1290.16 1306.16ZM1307.87 1300.42L1302.95 1301.59L1303.64 1304.51L1308.56 1303.34L1307.87 1300.42Z" fill="#EAE5E1"/>
<path d="M1424.76 1308.36L1442.04 1309.81L1434.64 1294.15L1424.76 1308.36ZM1437.92 1300.52L1436.34 1301.26L1437.62 1303.98L1439.2 1303.23L1437.92 1300.52Z" fill="#EAE5E1"/>
</svg>
