<svg width="194" height="52" viewBox="0 0 194 52" fill="none" xmlns="http://www.w3.org/2000/svg">
<mask id="mask0_442_92" style="mask-type:alpha" maskUnits="userSpaceOnUse" x="0" y="0" width="194" height="52">
<g clip-path="url(#clip0_442_92)">
<path d="M62.1345 40.4567L64.5498 34.674C67.1598 36.6819 70.6269 37.726 74.055 37.726C76.5871 37.726 78.1843 36.722 78.1843 35.196C78.1454 30.9393 63.0305 34.2724 62.9136 23.5905C62.8747 18.1693 67.5494 13.9929 74.1719 13.9929C78.1064 13.9929 82.0409 14.9968 84.8458 17.2858L82.5863 23.1889C80.0152 21.5023 76.8209 20.2976 73.7823 20.2976C71.7177 20.2976 70.3542 21.3015 70.3542 22.5866C70.3932 26.763 85.6249 24.474 85.7807 34.674C85.7807 40.2157 81.2229 44.111 74.6783 44.111C69.8867 44.111 65.4847 42.9464 62.1345 40.4567ZM154.81 32.5858C153.603 34.7543 151.343 36.2401 148.733 36.2401C144.877 36.2401 141.76 33.0275 141.76 29.0519C141.76 25.0763 144.877 21.8638 148.733 21.8638C151.343 21.8638 153.603 23.3496 154.81 25.5181L161.472 21.7031C158.979 17.1252 154.187 13.9929 148.733 13.9929C140.669 13.9929 134.125 20.7393 134.125 29.0519C134.125 37.3645 140.669 44.111 148.733 44.111C154.226 44.111 158.979 41.0189 161.472 36.4008L154.81 32.5858V32.5858ZM89.1309 1.50391H97.4674V43.5488H89.1309V1.50391ZM164.744 1.50391V43.5488H173.081V30.9393L182.975 43.5488H193.649L181.067 28.5701L192.714 14.5952H182.508L173.081 26.2008V1.50391H164.744ZM122.243 32.6661C121.036 34.7141 118.543 36.2401 115.738 36.2401C111.881 36.2401 108.765 33.0275 108.765 29.0519C108.765 25.0763 111.881 21.8638 115.738 21.8638C118.543 21.8638 121.036 23.4701 122.243 25.5582V32.6661ZM122.243 14.5952V18.0086C120.88 15.6393 117.491 13.9929 113.946 13.9929C106.622 13.9929 100.857 20.659 100.857 29.0118C100.857 37.3645 106.622 44.111 113.946 44.111C117.491 44.111 120.88 42.4645 122.243 40.0952V43.5086H130.58V14.5952H122.243Z" fill="black"/>
<path d="M10.597 32.626C10.597 35.5575 8.29857 37.9268 5.45479 37.9268C2.61102 37.9268 0.312622 35.5575 0.312622 32.626C0.312622 29.6945 2.61102 27.3252 5.45479 27.3252H10.597V32.626ZM13.168 32.626C13.168 29.6945 15.4664 27.3252 18.3102 27.3252C21.154 27.3252 23.4524 29.6945 23.4524 32.626V45.8779C23.4524 48.8094 21.154 51.1787 18.3102 51.1787C15.4664 51.1787 13.168 48.8094 13.168 45.8779V32.626Z" fill="#E01E5A"/>
<path d="M18.3093 11.3428C15.4655 11.3428 13.1671 8.97349 13.1671 6.042C13.1671 3.1105 15.4655 0.741211 18.3093 0.741211C21.153 0.741211 23.4514 3.1105 23.4514 6.042V11.3428H18.3093ZM18.3093 14.0333C21.153 14.0333 23.4514 16.4026 23.4514 19.3341C23.4514 22.2656 21.153 24.6349 18.3093 24.6349H5.41487C2.5711 24.6349 0.272705 22.2656 0.272705 19.3341C0.272705 16.4026 2.5711 14.0333 5.41487 14.0333H18.3093Z" fill="#36C5F0"/>
<path d="M38.9169 19.3341C38.9169 16.4026 41.2153 14.0333 44.0591 14.0333C46.9029 14.0333 49.2013 16.4026 49.2013 19.3341C49.2013 22.2656 46.9029 24.6349 44.0591 24.6349H38.9169V19.3341ZM36.3459 19.3341C36.3459 22.2656 34.0475 24.6349 31.2037 24.6349C28.3599 24.6349 26.0615 22.2656 26.0615 19.3341V6.042C26.0615 3.1105 28.3599 0.741211 31.2037 0.741211C34.0475 0.741211 36.3459 3.1105 36.3459 6.042V19.3341V19.3341Z" fill="#2EB67D"/>
<path d="M31.2037 40.5772C34.0475 40.5772 36.3459 42.9465 36.3459 45.8779C36.3459 48.8094 34.0475 51.1787 31.2037 51.1787C28.3599 51.1787 26.0615 48.8094 26.0615 45.8779V40.5772H31.2037ZM31.2037 37.9268C28.3599 37.9268 26.0615 35.5575 26.0615 32.626C26.0615 29.6945 28.3599 27.3252 31.2037 27.3252H44.0981C46.9418 27.3252 49.2402 29.6945 49.2402 32.626C49.2402 35.5575 46.9418 37.9268 44.0981 37.9268H31.2037Z" fill="#ECB22E"/>
</g>
</mask>
<g mask="url(#mask0_442_92)">
<rect x="1" y="-9.5" width="194" height="70" fill="#0A2042"/>
</g>
<defs>
<clipPath id="clip0_442_92">
<rect width="194" height="51" fill="white" transform="translate(0 0.5)"/>
</clipPath>
</defs>
</svg>
