<svg width="194" height="60" viewBox="0 0 194 60" fill="none" xmlns="http://www.w3.org/2000/svg">
<mask id="mask0_442_101" style="mask-type:alpha" maskUnits="userSpaceOnUse" x="0" y="0" width="194" height="60">
<path d="M89.3623 5.61035V8.45835H92.9416V25.053H95.5134V8.45835H99.0927V5.61035" fill="black"/>
<path d="M181.697 5.61035H178.979V25.0537H181.697V5.61035Z" fill="black"/>
<path d="M181.842 15.323L188.856 5.61035H192.29L184.849 15.323L192.152 25.053H188.573" fill="black"/>
<path d="M169.67 25.053H159.94V5.61035H169.67V8.28902H162.656V14.1564H169.67V16.673H162.656V22.3703H169.67" fill="black"/>
<path d="M140.471 25.053H137.747V5.61035H140.471V13.8277H148.057V5.61035H150.635V25.053H148.057V16.673H140.471" fill="black"/>
<path d="M113.844 10.6397C115.272 5.77302 120.568 3.76835 125.01 5.28102C126.01 5.77235 127.154 6.28435 128.154 6.61702V3.60568C122.575 0.919685 114.989 1.41835 111.548 7.29235C107.969 12.813 109.692 21.0277 115.7 24.039C118.851 25.887 124.575 25.721 127.727 24.039L127.871 20.359C124.865 22.533 120.713 23.371 117.562 21.3664C114.273 19.0164 113.265 16.6724 113.265 12.4744L113.411 11.9824" fill="black"/>
<path d="M80.6316 15.9977C81.6314 14.9937 82.0595 13.4884 82.0595 11.9824C82.0595 10.141 81.4865 8.45835 80.1971 7.29235C79.1973 6.44768 77.763 5.77302 75.9077 5.77302C75.6187 5.77302 75.4738 5.61035 75.3289 5.61035H69.7495V25.053H72.4675V16.167L75.9077 21.3663L78.4808 25.053H82.0601L76.9081 17.673C78.3347 17.673 79.6248 16.999 80.6316 15.9977ZM73.7556 15.8283H72.4668V8.45835H74.6176C74.9009 8.45835 75.4732 8.61768 75.9071 8.61768C76.7626 8.79768 77.4798 8.95702 78.1969 9.29635C79.0518 9.96435 79.3415 10.9784 79.3415 11.9824C79.3415 13.149 78.7699 14.3257 78.0521 14.9937C77.4798 15.323 76.7626 15.6617 75.9071 15.8277C75.3283 15.8284 74.4734 15.8283 73.7556 15.8283Z" fill="black"/>
<path d="M60.5844 11.3079C60.1563 10.3006 59.3008 9.13392 58.2946 8.28925C57.5768 7.45192 56.2938 6.44792 55.2876 5.94925C54.143 5.77258 52.8535 5.44058 51.7089 5.44058C51.7089 5.28125 51.7089 5.28125 51.7089 5.28125C50.5637 5.28125 49.1358 5.60992 47.9912 6.10858C46.9844 6.44792 45.8398 7.29258 44.9849 8.12992C44.2677 9.13392 43.4057 10.2999 42.9783 11.4772C42.4053 12.4746 42.2611 13.9866 42.2611 15.1539C42.2611 16.5066 42.4053 17.8433 42.9783 19.0166C43.2615 20.1833 43.8403 21.1906 44.4119 22.0419C45.4117 23.2086 46.7018 24.0399 47.847 24.5553C48.9916 25.0539 50.4195 25.3833 51.7096 25.3833C52.999 25.3833 54.4333 25.0539 55.5779 24.5553C56.7232 24.0399 58.0126 23.2086 58.8675 22.0419C59.7295 21.1912 60.3025 20.1833 60.5851 19.0166C61.1574 17.8433 61.4471 16.6733 61.4471 15.1539C61.4464 13.8279 61.1561 12.3053 60.5844 11.3079ZM56.4322 20.3599C55.2876 21.7066 53.4258 22.5339 51.7089 22.5339C50.8534 22.5339 49.7081 22.2046 48.991 21.8659C48.129 21.7066 47.2741 20.8519 46.8395 20.3606C46.1295 19.8453 45.6943 18.8479 45.4117 18.0033C45.2675 17.1759 44.9842 16.1686 44.9842 15.1546C44.9842 14.3266 45.2675 13.1499 45.5565 12.3059C45.8398 11.4786 46.2743 10.6406 46.9844 10.3012C47.4183 9.62658 48.2745 8.95858 49.1358 8.61925C49.8465 8.45992 50.8527 8.13125 51.7089 8.13125V8.29058C52.5709 8.29058 53.4258 8.61992 54.2878 8.61992C55.1434 8.95925 55.8605 9.62725 56.5777 10.4819C57.1506 11.1399 57.8678 11.8079 58.0126 12.6453C58.2959 13.3306 58.5843 14.3273 58.5843 15.1553C58.5836 17.1753 57.8665 19.0166 56.4322 20.3599Z" fill="black"/>
<path d="M34.1022 8.45902C33.6741 7.61435 32.9569 6.95368 32.3846 6.44768C31.6675 6.28502 31.0952 5.94902 30.3786 5.77302C30.0954 5.77302 29.5231 5.77302 29.0885 5.77302C28.6605 5.77302 28.0888 5.61035 27.6607 5.61035H23.3643V25.0537H26.2258V17.1757H28.2324C28.5156 17.1757 28.8053 17.1757 29.0879 17.1757C30.6664 17.1757 32.0943 16.6737 33.1018 15.663C34.1015 14.663 34.9564 13.1497 34.9564 11.4784C34.957 10.481 34.6738 9.29702 34.1022 8.45902ZM31.24 13.987C30.6671 14.3264 29.9506 14.4957 29.0885 14.6624C28.6605 14.6624 28.233 14.6624 27.9433 14.6624H26.2258V8.28968H28.2324C28.5156 8.28968 28.8053 8.45902 29.0879 8.45902C29.8051 8.45902 30.5222 8.61835 31.2394 9.13435C31.6668 9.62568 32.2391 10.481 32.2391 11.4777C32.2398 12.6444 31.6675 13.489 31.24 13.987Z" fill="black"/>
<path d="M75.9071 40.6308L51.7082 42.1361L29.0884 43.4794H28.2329L29.0884 44.4928L42.1155 59.0594L51.7082 57.3768L75.9071 52.7008L169.815 34.9268" fill="#EB1E2F"/>
<path d="M11.0542 20.6885C12.3443 17.6732 10.1922 15.9978 7.61977 14.6618C6.47452 14.4952 4.61342 13.1492 3.46817 12.3045C0.316317 9.80185 0.599557 5.11185 3.89562 2.76118C6.47452 1.24851 9.61991 1.75785 12.1988 3.10051V6.28451C10.4819 4.60251 5.90222 3.25985 4.75116 6.44785C2.89587 10.8092 9.76476 11.9825 12.054 13.9865C15.6333 16.3365 15.2058 21.8645 11.6265 24.2152C9.04696 25.5518 4.46792 25.8872 2.17807 23.6998V23.5372V20.8512C4.46792 22.6932 9.61991 24.0392 11.0542 20.6885Z" fill="black"/>
</mask>
<g mask="url(#mask0_442_101)">
<rect x="1" y="-5" width="194" height="70" fill="#0A2042"/>
</g>
</svg>
