<svg width="194" height="60" viewBox="0 0 194 60" fill="none" xmlns="http://www.w3.org/2000/svg">
<mask id="mask0_442_88" style="mask-type:alpha" maskUnits="userSpaceOnUse" x="0" y="0" width="194" height="60">
<g clip-path="url(#clip0_442_88)">
<path d="M29.1498 0.597656C13.0991 0.597656 0.0869141 13.7648 0.0869141 30.007C0.0869141 46.25 13.0991 59.4161 29.1498 59.4161C45.2022 59.4161 58.213 46.25 58.213 30.007C58.213 13.7659 45.2022 0.599061 29.1494 0.599061L29.1498 0.597656V0.597656ZM42.4778 43.0144C41.9573 43.8784 40.8398 44.1523 39.986 43.622C33.1624 39.4042 24.5722 38.449 14.4558 40.7879C13.4809 41.0127 12.5092 40.3946 12.2871 39.4077C12.0639 38.4209 12.6723 37.4375 13.6496 37.2128C24.7204 34.6533 34.2167 35.7553 41.8774 40.4929C42.7312 41.0232 43.0019 42.1505 42.4778 43.0144V43.0144ZM46.0351 35.0066C45.3791 36.0854 43.984 36.4261 42.9186 35.7624C35.1065 30.9033 23.1983 29.4961 13.9581 32.3344C12.7597 32.7007 11.494 32.0173 11.1303 30.8067C10.7694 29.594 11.4451 28.3157 12.6414 27.947C23.1962 24.7062 36.3177 26.276 45.2889 31.8547C46.3544 32.5184 46.691 33.9302 46.0351 35.0069V35.0066ZM46.3405 26.6679C36.9736 21.038 21.5196 20.5203 12.5765 23.267C11.1404 23.7077 9.62172 22.8874 9.18652 21.4341C8.75132 19.9802 9.56133 18.4445 10.9985 18.0027C21.2645 14.849 38.3306 15.4583 49.1148 21.9367C50.4093 22.7125 50.8327 24.4006 50.0657 25.706C49.3022 27.0131 47.6294 27.4441 46.3419 26.6679H46.3405ZM79.1574 27.7468C74.139 26.5359 73.2471 25.686 73.2471 23.9002C73.2471 22.2131 74.8158 21.0777 77.1514 21.0777C79.4142 21.0777 81.6561 21.9398 84.0091 23.7148C84.0785 23.7685 84.1687 23.7899 84.2555 23.7759C84.3457 23.7625 84.4221 23.7137 84.4741 23.6403L86.9243 20.1453C87.025 20.0013 86.9972 19.8029 86.8618 19.6929C84.0612 17.4197 80.91 16.3145 77.2243 16.3145C71.8069 16.3145 68.0206 19.6048 68.0206 24.3125C68.0206 29.3609 71.2863 31.1484 76.9293 32.5282C81.729 33.6475 82.5411 34.5852 82.5411 36.261C82.5411 38.1188 80.903 39.2743 78.2655 39.2743C75.3364 39.2743 72.9452 38.2734 70.2729 35.9344C70.207 35.8747 70.1168 35.8502 70.0335 35.8537C69.9432 35.8607 69.8634 35.9028 69.8079 35.9696L67.0593 39.2778C66.9447 39.4182 66.9586 39.6219 67.0905 39.7413C70.2 42.5509 74.0245 44.0329 78.1544 44.0329C83.9917 44.0329 87.7642 40.8054 87.7642 35.808C87.7746 31.5913 85.2793 29.2558 79.1678 27.7513L79.1574 27.7468V27.7468ZM100.973 22.7388C98.4429 22.7388 96.3675 23.7474 94.6531 25.8142V23.4879C94.6531 23.3042 94.5073 23.1546 94.3268 23.1546H89.8326C89.6521 23.1546 89.5064 23.3042 89.5064 23.4879V49.3359C89.5064 49.5185 89.6521 49.6695 89.8326 49.6695H94.3268C94.5073 49.6695 94.6531 49.5185 94.6531 49.3359V41.1777C96.3675 43.1198 98.4429 44.0715 100.973 44.0715C105.675 44.0715 110.437 40.4086 110.437 33.4062C110.444 26.4024 105.682 22.7385 100.976 22.7385L100.973 22.7388ZM105.21 33.4062C105.21 36.9704 103.041 39.4604 99.9317 39.4604C96.8603 39.4604 94.542 36.8581 94.542 33.4062C94.542 29.954 96.8603 27.3524 99.9317 27.3524C102.989 27.352 105.21 29.8975 105.21 33.4059V33.4062ZM122.636 22.7388C116.58 22.7388 111.835 27.4574 111.835 33.4824C111.835 39.4428 116.548 44.1101 122.563 44.1101C128.64 44.1101 133.398 39.4077 133.398 33.4062C133.398 27.4251 128.671 22.7395 122.636 22.7395V22.7388V22.7388ZM122.636 39.4955C119.415 39.4955 116.986 36.8756 116.986 33.4045C116.986 29.9175 119.332 27.3872 122.563 27.3872C125.804 27.3872 128.247 30.006 128.247 33.4807C128.247 36.9669 125.887 39.4955 122.636 39.4955V39.4955ZM146.329 23.1546H141.383V18.0392C141.383 17.8559 141.237 17.7062 141.057 17.7062H136.563C136.382 17.7062 136.233 17.8559 136.233 18.0392V23.1546H134.074C133.894 23.1546 133.748 23.3042 133.748 23.4879V27.3956C133.748 27.5789 133.894 27.7289 134.074 27.7289H136.233V37.8414C136.233 41.9257 138.242 43.9978 142.209 43.9978C143.819 43.9978 145.156 43.6606 146.415 42.9372C146.519 42.881 146.582 42.7686 146.582 42.6492V38.9266C146.582 38.8142 146.523 38.7053 146.426 38.6456C146.329 38.5824 146.207 38.5789 146.106 38.6316C145.242 39.0706 144.406 39.2743 143.469 39.2743C142.029 39.2743 141.383 38.6105 141.383 37.1285V27.7306H146.329C146.509 27.7306 146.655 27.581 146.655 27.3973V23.49C146.662 23.3063 146.516 23.1567 146.332 23.1567L146.329 23.1546V23.1546ZM163.556 23.1746V22.5464C163.556 20.698 164.257 19.8738 165.826 19.8738C166.763 19.8738 167.516 20.062 168.359 20.3465C168.463 20.3795 168.571 20.363 168.654 20.3001C168.741 20.2373 168.79 20.1365 168.79 20.0297V16.1982C168.79 16.0518 168.699 15.9222 168.557 15.879C167.669 15.611 166.53 15.3361 164.823 15.3361C160.676 15.3361 158.479 17.701 158.479 22.1727V23.1349H156.32C156.14 23.1349 155.99 23.2846 155.99 23.4679V27.3956C155.99 27.5789 156.14 27.7289 156.32 27.7289H158.479V43.3235C158.479 43.5096 158.628 43.6571 158.808 43.6571H163.299C163.483 43.6571 163.629 43.5096 163.629 43.3235V27.7299H167.825L174.252 43.3235C173.523 44.96 172.805 45.2866 171.826 45.2866C171.035 45.2866 170.199 45.0478 169.348 44.5737C169.268 44.5316 169.171 44.5246 169.088 44.5491C169.001 44.5807 168.928 44.644 168.894 44.7282L167.37 48.1102C167.297 48.2718 167.36 48.4579 167.512 48.5422C169.102 49.4131 170.535 49.7854 172.309 49.7854C175.626 49.7854 177.462 48.2191 179.076 44.0118L186.871 23.6298C186.912 23.5272 186.899 23.4113 186.836 23.3204C186.777 23.2301 186.676 23.1757 186.569 23.1757H181.891C181.748 23.1757 181.623 23.2659 181.578 23.399L176.786 37.2479L171.538 23.3899C171.49 23.261 171.368 23.1757 171.233 23.1757H163.556V23.1746V23.1746ZM153.568 23.1546H149.074C148.893 23.1546 148.744 23.3042 148.744 23.4879V43.3235C148.744 43.5096 148.893 43.6571 149.074 43.6571H153.568C153.748 43.6571 153.898 43.5096 153.898 43.3235V23.4893C153.898 23.3056 153.752 23.156 153.568 23.156V23.1546ZM151.347 14.1223C149.567 14.1223 148.123 15.5805 148.123 17.3817C148.123 19.1841 149.567 20.644 151.347 20.644C153.127 20.644 154.568 19.1841 154.568 17.3817C154.568 15.5808 153.124 14.1223 151.347 14.1223ZM190.709 29.5326C188.932 29.5326 187.547 28.0874 187.547 26.3325C187.547 24.5776 188.95 23.116 190.726 23.116C192.503 23.116 193.888 24.5608 193.888 26.3143C193.888 28.0692 192.486 29.5326 190.709 29.5326ZM190.726 23.4342C189.106 23.4342 187.881 24.7371 187.881 26.3325C187.881 27.9273 189.099 29.2127 190.709 29.2127C192.33 29.2127 193.555 27.9108 193.555 26.3143C193.555 24.7195 192.337 23.4342 190.726 23.4342V23.4342ZM191.428 26.6433L192.323 27.9104H191.566L190.761 26.748H190.071V27.9104H189.439V24.5517H190.917C191.691 24.5517 192.198 24.951 192.198 25.6231C192.201 26.1738 191.886 26.5102 191.431 26.6433H191.428ZM190.893 25.128H190.071V26.1903H190.893C191.303 26.1903 191.549 25.987 191.549 25.6586C191.549 25.313 191.303 25.128 190.893 25.128V25.128Z" fill="#1ED760"/>
</g>
</mask>
<g mask="url(#mask0_442_88)">
<rect y="-5.5" width="194" height="70" fill="#0A2042"/>
</g>
<defs>
<clipPath id="clip0_442_88">
<rect width="194" height="59" fill="white" transform="translate(0 0.5)"/>
</clipPath>
</defs>
</svg>
