<svg width="165" height="110" viewBox="0 0 165 110" fill="none" xmlns="http://www.w3.org/2000/svg">
<mask id="mask0_442_54" style="mask-type:alpha" maskUnits="userSpaceOnUse" x="0" y="0" width="165" height="110">
<path d="M151.877 109.662C144.212 109.662 139.666 105.796 139.318 100.227H146.647C146.647 102.084 147.691 104.555 152.225 104.708C155.368 104.708 157.107 102.852 157.107 101.457C156.76 99.2935 153.965 99.1398 151.182 98.6669C148.039 98.2176 145.604 97.591 143.853 96.8225C141.418 95.5811 140.014 92.9446 140.014 90.1662C140.014 85.2125 144.212 81.3464 151.53 81.3464C158.511 81.3464 163.045 84.9051 163.381 90.3199H156.412C156.412 88.9367 156.064 86.6076 151.877 86.6076C149.083 86.6076 147.343 87.0687 146.995 89.0785C146.995 91.8687 152.921 91.715 157.455 92.7909C161.642 93.8786 164.436 96.5033 164.436 100.227C164.436 107.037 158.859 109.662 151.877 109.662" fill="black"/>
<path d="M18.3237 63.9731L42.3863 50.1995L55.2932 72.0244H22.8579" fill="black"/>
<path d="M68.9231 108.841V81.2936Z" fill="black"/>
<path d="M68.9231 108.841V81.2936" stroke="black" stroke-width="7"/>
<path d="M7.15533 95.4753C7.15533 99.8024 10.9938 103.361 15.1682 103.361C19.7144 103.361 23.193 99.8024 23.193 95.4753C23.193 91.3018 19.7144 87.5894 15.1682 87.5894C10.9938 87.5894 7.15533 91.3018 7.15533 95.4753V95.4753ZM14.8203 109.71C7.15533 109.71 0.533936 103.361 0.533936 95.4753C0.533936 87.5894 7.15533 81.3943 14.8203 81.3943C17.9631 81.3943 20.758 82.1746 23.193 83.8653V81.7017H30.1743V109.083H23.193V107.381C21.1058 108.93 17.9631 109.71 14.8203 109.71" fill="black"/>
<path d="M107.954 72.0186L74.4758 14.4654L98.5382 0.538236L140.389 72.0186" fill="black"/>
<path d="M39.2425 95.4753C39.2425 99.8024 42.7331 103.361 47.2673 103.361C51.4417 103.361 55.2922 99.8024 55.2922 95.4753C55.2922 91.3018 51.4417 87.5894 47.2673 87.5894C42.7331 87.5894 39.2425 91.3018 39.2425 95.4753ZM46.9195 109.71C38.8946 109.71 32.6211 103.361 32.6211 95.4753C32.6211 87.5894 38.8946 81.3943 46.9195 81.3943C50.0502 81.3943 52.8451 82.1746 55.2922 83.8652V72.267H62.2614V109.083H55.2922V107.381C52.8451 108.93 50.0502 109.71 46.9195 109.71" fill="black"/>
<path d="M46.5757 39.3734L70.9861 25.7653L97.8435 72.0162H72.3775V78.8262H65.4083V72.0162" fill="black"/>
<path d="M159.914 79.041C158.163 79.041 156.424 77.4922 156.424 75.636C156.424 73.7799 158.163 72.2311 159.914 72.2311C162.001 72.2311 163.405 73.7799 163.405 75.636C163.405 77.4922 162.001 79.041 159.914 79.041ZM159.914 72.704C158.163 72.704 157.119 74.0873 157.119 75.636C157.119 77.1848 158.163 78.5799 159.914 78.5799C161.654 78.5799 162.697 77.1848 162.697 75.636C162.697 74.0873 161.654 72.704 159.914 72.704Z" fill="black"/>
<path d="M160.634 77.5049L159.938 75.9561H159.242V77.5049H158.715V73.7925H160.286C160.634 73.7925 161.33 74.2654 161.33 74.8802C161.33 75.495 160.982 75.8024 160.634 75.9561L161.33 77.5049H160.634ZM159.938 74.2654H159.242V75.495H159.938C160.634 75.495 160.634 75.3413 160.634 74.8802C160.634 74.561 160.634 74.2654 159.938 74.2654" fill="black"/>
<path d="M113.853 95.4753C113.853 99.8024 117.343 103.361 121.878 103.361C126.064 103.361 129.89 99.8024 129.89 95.4753C129.89 91.3018 126.064 87.5894 121.878 87.5894C117.343 87.5894 113.853 91.3018 113.853 95.4753V95.4753ZM121.518 109.71C113.505 109.71 107.231 103.361 107.231 95.4753C107.231 87.5894 113.505 81.3943 121.518 81.3943C124.66 81.3943 127.455 82.1746 129.89 83.8653V81.7017H136.524V109.083H129.89V107.381C127.455 108.93 124.66 109.71 121.518 109.71" fill="black"/>
<path d="M81.7894 95.4753C81.7894 99.8024 85.6279 103.361 89.8142 103.361C94.3484 103.361 97.8391 99.8024 97.8391 95.4753C97.8391 91.3018 94.3484 87.5894 89.8142 87.5894C85.6279 87.5894 81.7894 91.3018 81.7894 95.4753ZM97.8391 72.267H104.808V109.083H97.8391V107.381C95.7399 108.93 92.945 109.71 89.8142 109.71C81.7894 109.71 75.168 103.361 75.168 95.4753C75.168 87.5894 81.7894 81.3943 89.8142 81.3943C92.945 81.3943 95.7399 82.1746 97.8391 83.8652V72.267Z" fill="black"/>
</mask>
<g mask="url(#mask0_442_54)">
<rect x="-15" y="-10" width="194" height="129" fill="#0A2042"/>
</g>
</svg>
