<svg width="194" height="52" viewBox="0 0 194 52" fill="none" xmlns="http://www.w3.org/2000/svg">
<mask id="mask0_405_133" style="mask-type:alpha" maskUnits="userSpaceOnUse" x="0" y="0" width="194" height="52">
<g clip-path="url(#clip0_405_133)">
<path d="M21.3735 0H0V52L21.3735 0Z" fill="#FA0C00"/>
<path d="M36.4116 0H57.7573V52L36.4116 0Z" fill="#FA0C00"/>
<path d="M28.8926 19.165L42.4965 51.9997H33.5711L29.5053 41.5459H19.5496L28.8926 19.165Z" fill="#FA0C00"/>
<path d="M92.6264 33.068L95.1467 40.4196C95.2302 40.6038 95.3555 40.6888 95.5783 40.6888H100.424C100.688 40.6888 100.73 40.5613 100.688 40.2922L90.6771 12.0045C90.6353 11.7778 90.5935 11.7354 90.3707 11.7354H84.3555C84.1884 11.7354 84.0909 11.8628 84.0909 12.047C84.0074 13.5343 83.8821 13.9876 83.7011 14.4267L74.7757 40.2497C74.7339 40.5613 74.8314 40.6888 75.082 40.6888H79.4124C79.677 40.6888 79.8023 40.6038 79.8998 40.3346L82.2808 33.068H92.6264ZM83.6593 28.266C84.9682 24.2431 86.6948 19.087 87.391 16.1407H87.4327C88.296 19.2287 90.329 25.348 91.2479 28.266H83.6593Z" fill="#FA0C00"/>
<path d="M113.559 41.1282C116.163 41.1282 118.934 40.6466 121.746 39.4143C121.969 39.3293 122.011 39.2301 122.011 39.0176C121.927 38.2244 121.83 37.077 121.83 36.1988V9.56845C121.83 9.39847 121.83 9.31348 121.621 9.31348H116.901C116.72 9.31348 116.636 9.39847 116.636 9.62511V18.6483C115.898 18.5633 115.383 18.5208 114.77 18.5208C107.154 18.5208 102.475 23.6344 102.475 30.0228C102.475 37.4312 107.279 41.1282 113.559 41.1282V41.1282ZM116.636 36.1988C115.856 36.4538 114.993 36.5529 114.116 36.5529C110.663 36.5529 107.836 34.5698 107.836 29.7537C107.836 25.49 110.746 22.9686 114.603 22.9686C115.383 22.9686 116.065 23.0536 116.636 23.2802V36.1988Z" fill="#FA0C00"/>
<path d="M137.07 18.5205C130.567 18.5205 126.543 23.5916 126.543 29.8526C126.543 35.4478 129.746 41.128 136.972 41.128C143.085 41.128 147.373 36.5526 147.373 29.7109C147.373 23.6766 143.739 18.5205 137.07 18.5205ZM136.805 22.9683C140.481 22.9683 142.041 26.1838 142.041 29.8526C142.041 34.3854 139.743 36.6376 137.07 36.6376C133.77 36.6376 131.82 33.8188 131.82 29.7534C131.82 25.5747 133.895 22.9683 136.805 22.9683V22.9683Z" fill="#FA0C00"/>
<path d="M152.253 9.31348C152.072 9.31348 151.947 9.39847 151.947 9.62511V39.7684C151.947 39.8959 152.072 40.1225 152.253 40.165C154.328 40.8166 156.5 41.1282 158.742 41.1282C165.161 41.1282 171.399 37.077 171.399 28.9179C171.399 23.0111 167.417 18.5208 161.179 18.5208C159.745 18.5208 158.408 18.7474 157.238 19.144L157.182 9.6676C157.182 9.35597 157.099 9.31348 156.793 9.31348H152.253ZM166.066 29.4562C166.066 34.3432 162.78 36.6379 159.229 36.6379C158.491 36.6379 157.837 36.5954 157.238 36.4113V23.5494C157.92 23.2802 158.742 23.0536 160.26 23.0536C163.685 23.0536 166.066 25.2634 166.066 29.4562Z" fill="#FA0C00"/>
<path d="M189.015 31.0424C191.131 31.0424 192.872 30.9999 193.471 30.8583C193.694 30.8158 193.777 30.7308 193.819 30.5467C193.944 30.065 194 29.0593 194 27.827C194 23.6341 191.521 18.5205 185.116 18.5205C178.572 18.5205 174.938 23.9457 174.938 30.065C174.938 35.4903 177.75 41.128 185.631 41.128C188.583 41.128 190.491 40.6464 192.134 39.8531C192.301 39.7681 192.385 39.6265 192.385 39.3715V35.7027C192.385 35.4903 192.259 35.4478 192.134 35.5328C190.491 36.241 188.709 36.5951 186.759 36.5951C182.345 36.5951 180.34 34.1163 180.215 31.0424H189.015ZM180.215 27.2462C180.563 25.0931 181.9 22.7559 184.893 22.7559C188.194 22.7559 189.057 25.5747 189.057 26.8496C189.057 26.8921 189.057 27.0762 189.057 27.2037C188.876 27.2462 188.319 27.2462 186.676 27.2462H180.215Z" fill="#FA0C00"/>
</g>
</mask>
<g mask="url(#mask0_405_133)">
<rect x="1" y="-9.5" width="194" height="70" fill="#0A2042"/>
</g>
<defs>
<clipPath id="clip0_405_133">
<rect width="194" height="52" fill="white"/>
</clipPath>
</defs>
</svg>
