<svg width="194" height="70" viewBox="0 0 194 70" fill="none" xmlns="http://www.w3.org/2000/svg">
<mask id="mask0_442_120" style="mask-type:alpha" maskUnits="userSpaceOnUse" x="0" y="0" width="194" height="70">
<path d="M1.38184 0V54.2769L8.29142 54.3039V28.4577H24.901V21.6192H8.26485V6.81154H29.9238V0H1.38184ZM42.3079 11.0385C43.5061 11.0385 44.6552 10.5563 45.5024 9.69791C46.3497 8.83957 46.8257 7.67541 46.8257 6.46154C46.8257 5.24766 46.3497 4.0835 45.5024 3.22517C44.6552 2.36683 43.5061 1.88462 42.3079 1.88462C41.1097 1.88462 39.9605 2.36683 39.1133 3.22517C38.266 4.0835 37.7901 5.24766 37.7901 6.46154C37.7901 7.67541 38.266 8.83957 39.1133 9.69791C39.9605 10.5563 41.1097 11.0385 42.3079 11.0385V11.0385ZM38.8265 17.85V54.3039H45.7361V17.85H38.8265V17.85Z" fill="black"/>
<path fill-rule="evenodd" clip-rule="evenodd" d="M71.2751 16.7998C62.1332 16.7998 55.7551 24.6344 55.7551 33.9498C55.7551 43.2652 62.1332 51.0998 71.2751 51.0998C75.474 51.0998 78.9288 49.4844 81.4535 46.7921V51.6383C81.4711 53.0863 81.2051 54.5235 80.6711 55.8667C80.1371 57.21 79.3455 58.4327 78.3422 59.4641C77.3389 60.4956 76.1437 61.3153 74.8258 61.876C73.5079 62.4367 72.0933 62.7271 70.6639 62.7306C68.4581 62.7306 66.279 61.869 64.5516 60.6306L61.0968 66.6883C63.7682 68.4377 66.8561 69.4242 70.0349 69.5437C73.2136 69.6633 76.3652 68.9115 79.1573 67.3676C81.9494 65.8237 84.2784 63.545 85.8987 60.7718C87.5189 57.9986 88.3703 54.8339 88.3631 51.6113V17.8767H81.4535V21.1344C78.9288 18.4421 75.474 16.8267 71.2751 16.8267V16.7998ZM62.6381 33.9498C62.6381 28.1613 66.9965 23.6113 72.0458 23.6113C77.0951 23.6113 81.4269 28.1883 81.4269 33.9498C81.4269 39.7383 77.0686 44.2613 72.0458 44.2613C66.9965 44.2613 62.6381 39.7383 62.6381 33.9498V33.9498Z" fill="black"/>
<path d="M113.184 23.6118C111.208 23.6472 109.325 24.4692 107.943 25.9001C106.56 27.331 105.789 29.2557 105.797 31.258V54.3042H98.887V17.8503H105.797V21.1888C106.83 19.8007 108.173 18.6797 109.716 17.9171C111.258 17.1545 112.957 16.7718 114.673 16.8003C119.509 16.8003 123.23 19.2234 125.356 22.9388C126.542 21.0762 128.165 19.5406 130.081 18.4694C131.996 17.3981 134.144 16.8247 136.332 16.8003C144.171 16.8003 149.088 23.208 149.088 31.1503V54.3042H142.231V31.2311C142.239 29.2288 141.468 27.3041 140.085 25.8732C138.702 24.4423 136.82 23.6203 134.843 23.5849C132.867 23.6203 130.984 24.4423 129.602 25.8732C128.219 27.3041 127.448 29.2288 127.455 31.2311V54.2772H120.546V31.2311C120.553 29.2334 119.786 27.3126 118.409 25.8825C117.032 24.4523 115.156 23.6273 113.184 23.5849V23.6118Z" fill="black"/>
<path fill-rule="evenodd" clip-rule="evenodd" d="M185.841 21.9964C184.272 20.3389 182.386 19.0232 180.298 18.1297C178.21 17.2363 175.963 16.7839 173.696 16.8002C163.438 16.8002 156.157 25.5772 156.157 36.0772C156.157 46.5772 163.438 55.3541 173.696 55.3541C175.963 55.3657 178.207 54.9112 180.295 54.018C182.383 53.1249 184.27 51.8116 185.841 50.1579V54.3041H192.724V17.8502H185.815V21.9964H185.841ZM163.04 36.0772C163.04 29.131 168.302 23.6118 174.441 23.6118C180.553 23.6118 185.841 29.131 185.841 36.0772C185.841 43.0233 180.579 48.5156 174.441 48.5156C168.328 48.5156 163.04 43.0233 163.04 36.0772V36.0772Z" fill="black"/>
</mask>
<g mask="url(#mask0_442_120)">
<rect width="194" height="70" fill="#0A2042"/>
</g>
</svg>
