<svg width="147" height="22" viewBox="0 0 147 22" fill="none" xmlns="http://www.w3.org/2000/svg">
<path d="M0 18.959V2.32829H7.0172C9.10677 2.32829 10.7597 2.85097 11.976 3.89633C13.2079 4.92585 13.8239 6.36717 13.8239 8.2203C13.8239 10.121 13.1767 11.594 11.8825 12.6393C10.5882 13.6847 8.88845 14.2073 6.78329 14.2073H4.53779V18.959H0ZM4.53779 10.5961H6.68973C7.50061 10.5961 8.13216 10.3981 8.58438 10.0022C9.05219 9.60619 9.2861 9.06767 9.2861 8.38661C9.2861 7.67387 9.05219 7.13535 8.58438 6.77106C8.13216 6.39093 7.49281 6.20086 6.66634 6.20086H4.53779V10.5961Z" fill="#F87556"/>
<path d="M15.7384 18.959V2.32829H23.4808C25.8666 2.32829 27.6443 2.92225 28.8138 4.11015C29.7806 5.09215 30.2641 6.40677 30.2641 8.054C30.2641 10.4932 29.1413 12.1958 26.8958 13.162L30.802 18.959H25.5625L22.2644 13.9222H20.2762V18.959H15.7384ZM20.2762 10.311H23.2702C24.0343 10.311 24.6269 10.1368 25.0479 9.78834C25.4846 9.42405 25.7029 8.92513 25.7029 8.29158C25.7029 7.64219 25.4846 7.15119 25.0479 6.81857C24.6269 6.48596 24.0265 6.31965 23.2469 6.31965H20.2762V10.311Z" fill="#F87556"/>
<path d="M30.2114 22L40.5735 0H44.1757L33.8136 22H30.2114Z" fill="#F87556"/>
<path d="M43.6 18L49.76 3.9H52.04L58.2 18H55.6L54.18 14.62H47.56L46.12 18H43.6ZM48.46 12.44H53.28L50.86 6.84L48.46 12.44ZM66.3814 18.24C64.2214 18.24 62.4681 17.56 61.1214 16.2C59.7881 14.8267 59.1214 13.0933 59.1214 11C59.1214 9 59.8014 7.29333 61.1614 5.88C62.5347 4.46667 64.2614 3.76 66.3414 3.76C67.5147 3.76 68.5147 3.92 69.3414 4.24C70.1681 4.54667 70.9614 5.02 71.7214 5.66L70.1614 7.52C69.5747 7.01333 68.9814 6.64 68.3814 6.4C67.7947 6.14667 67.0814 6.02 66.2414 6.02C64.9614 6.02 63.8814 6.50667 63.0014 7.48C62.1347 8.45333 61.7014 9.62667 61.7014 11C61.7014 12.4533 62.1414 13.6533 63.0214 14.6C63.9014 15.5333 65.0481 16 66.4614 16C67.7681 16 68.8947 15.6467 69.8414 14.94V12.32H66.2614V10.18H72.2214V16.06C70.5281 17.5133 68.5814 18.24 66.3814 18.24ZM75.425 18V4H85.805V6.2H77.885V9.84H84.905V12.04H77.885V15.8H85.905V18H75.425ZM88.8234 18V4H91.1034L98.6034 13.68V4H101.023V18H98.9634L91.2434 8.04V18H88.8234ZM111.124 18.24C109.098 18.24 107.404 17.5467 106.044 16.16C104.684 14.76 104.004 13.04 104.004 11C104.004 8.97333 104.684 7.26 106.044 5.86C107.404 4.46 109.131 3.76 111.224 3.76C112.438 3.76 113.464 3.94667 114.304 4.32C115.158 4.69333 115.958 5.23333 116.704 5.94L115.124 7.76C113.871 6.6 112.564 6.02 111.204 6.02C109.871 6.02 108.764 6.5 107.884 7.46C107.018 8.42 106.584 9.6 106.584 11C106.584 12.3867 107.024 13.5667 107.904 14.54C108.784 15.5 109.884 15.98 111.204 15.98C112.004 15.98 112.711 15.8333 113.324 15.54C113.938 15.2333 114.571 14.7733 115.224 14.16L116.804 15.76C116.018 16.5867 115.184 17.2067 114.304 17.62C113.424 18.0333 112.364 18.24 111.124 18.24ZM123.315 18V12.48L117.755 4H120.655L124.575 10.2L128.535 4H131.355L125.795 12.42V18H123.315Z" fill="#0A2042"/>
</svg>
